<?xml version="1.0" encoding="UTF-8"?>
<svg version="1.1" xmlns="http://www.w3.org/2000/svg" width="220" height="220">
<path d="M0 0 C72.6 0 145.2 0 220 0 C220 72.6 220 145.2 220 220 C147.4 220 74.8 220 0 220 C0 147.4 0 74.8 0 0 Z " fill="#FCFCFC" transform="translate(0,0)"/>
<path d="M0 0 C15.23594198 12.25108443 27.48760951 28.77207252 29.79492188 48.70263672 C31.77758601 70.91319572 27.5970391 87.43594238 15 106 C15.79059814 106.30381592 15.79059814 106.30381592 16.59716797 106.61376953 C20.06903497 108.61674259 22.63278569 111.34771491 25.4453125 114.1796875 C26.05639862 114.78886017 26.66748474 115.39803284 27.29708862 116.02566528 C28.58544804 117.31266604 29.87129453 118.60218665 31.15478516 119.89404297 C33.11793621 121.86789769 35.09151602 123.83086735 37.06640625 125.79296875 C38.31835009 127.04623424 39.56967337 128.30012003 40.8203125 129.5546875 C41.40990753 130.14023407 41.99950256 130.72578064 42.60696411 131.32907104 C47.88967754 136.67261142 47.88967754 136.67261142 49 140 C48.86406285 143.80624015 48.53891744 146.21235144 46.375 149.375 C43.12935469 151.59570469 40.92878388 152 37 152 C32.0660347 149.19272908 28.25377528 145.5470031 24.2890625 141.5546875 C23.67606293 140.94360138 23.06306335 140.33251526 22.43148804 139.70291138 C21.14669159 138.41946841 19.86438712 137.13352642 18.58447266 135.84521484 C16.61713223 133.86708909 14.63924947 131.89995338 12.66015625 129.93359375 C11.41081589 128.6829331 10.16209538 127.43165289 8.9140625 126.1796875 C8.32041901 125.59009247 7.72677551 125.00049744 7.11514282 124.39303589 C3 120.22995798 3 120.22995798 3 118 C2.2471875 118.50789062 1.494375 119.01578125 0.71875 119.5390625 C-17.49476356 131.34248027 -36.4060133 135.72855296 -58.0625 132.3125 C-76.13799657 128.1701987 -93.05398194 117.60754437 -103.66796875 102.18359375 C-114.21807895 84.88883832 -119.4416166 65.5149858 -115.25 45.1875 C-114.85693172 43.78483855 -114.43865671 42.38907959 -114 41 C-113.75507812 40.09378906 -113.51015625 39.18757813 -113.2578125 38.25390625 C-107.78270553 19.62400686 -94.71340668 4.73576787 -77.953125 -4.71875 C-53.33261233 -17.46642661 -22.94302842 -16.21384689 0 0 Z " fill="#FBFBFB" transform="translate(144,41)"/>
<path d="M0 0 C15.23594198 12.25108443 27.48760951 28.77207252 29.79492188 48.70263672 C31.77758601 70.91319572 27.5970391 87.43594238 15 106 C15.79059814 106.30381592 15.79059814 106.30381592 16.59716797 106.61376953 C20.06903497 108.61674259 22.63278569 111.34771491 25.4453125 114.1796875 C26.05639862 114.78886017 26.66748474 115.39803284 27.29708862 116.02566528 C28.58544804 117.31266604 29.87129453 118.60218665 31.15478516 119.89404297 C33.11793621 121.86789769 35.09151602 123.83086735 37.06640625 125.79296875 C38.31835009 127.04623424 39.56967337 128.30012003 40.8203125 129.5546875 C41.40990753 130.14023407 41.99950256 130.72578064 42.60696411 131.32907104 C47.88967754 136.67261142 47.88967754 136.67261142 49 140 C48.86406285 143.80624015 48.53891744 146.21235144 46.375 149.375 C43.12935469 151.59570469 40.92878388 152 37 152 C32.0660347 149.19272908 28.25377528 145.5470031 24.2890625 141.5546875 C23.67606293 140.94360138 23.06306335 140.33251526 22.43148804 139.70291138 C21.14669159 138.41946841 19.86438712 137.13352642 18.58447266 135.84521484 C16.61713223 133.86708909 14.63924947 131.89995338 12.66015625 129.93359375 C11.41081589 128.6829331 10.16209538 127.43165289 8.9140625 126.1796875 C8.32041901 125.59009247 7.72677551 125.00049744 7.11514282 124.39303589 C3 120.22995798 3 120.22995798 3 118 C2.2471875 118.50789062 1.494375 119.01578125 0.71875 119.5390625 C-17.49476356 131.34248027 -36.4060133 135.72855296 -58.0625 132.3125 C-76.13799657 128.1701987 -93.05398194 117.60754437 -103.66796875 102.18359375 C-114.21807895 84.88883832 -119.4416166 65.5149858 -115.25 45.1875 C-114.85693172 43.78483855 -114.43865671 42.38907959 -114 41 C-113.75507812 40.09378906 -113.51015625 39.18757813 -113.2578125 38.25390625 C-107.78270553 19.62400686 -94.71340668 4.73576787 -77.953125 -4.71875 C-53.33261233 -17.46642661 -22.94302842 -16.21384689 0 0 Z M-83.88671875 23.02734375 C-93.0475517 34.04865492 -98.85254448 47.55866855 -98 62.125 C-97.71398065 63.75899175 -97.37335682 65.38372626 -97 67 C-96.74863281 68.26714844 -96.49726562 69.53429687 -96.23828125 70.83984375 C-94.52195385 78.94461799 -92.21565169 85.45409371 -87 92 C-86.35804687 93.00740234 -86.35804687 93.00740234 -85.703125 94.03515625 C-81.4788067 100.48345389 -75.49901282 104.05510796 -69 108 C-68.23300781 108.52464844 -67.46601562 109.04929687 -66.67578125 109.58984375 C-62.99655277 111.52882401 -59.29426308 112.36321806 -55.25 113.25 C-54.10917969 113.5284375 -54.10917969 113.5284375 -52.9453125 113.8125 C-47.33400704 115.06791071 -42.64843955 114.86849583 -37 114 C-35.7521875 113.89042969 -34.504375 113.78085938 -33.21875 113.66796875 C-20.10505657 111.97365752 -9.2755717 105.59081111 -0.8125 95.34375 C7.23870379 84.74659471 12.99965926 71.5233839 11.875 57.9375 C11.61177798 56.28687861 11.317309 54.64108251 11 53 C10.835 51.89914063 10.67 50.79828125 10.5 49.6640625 C9.00974667 41.07647766 6.18772754 34.95054757 1 28 C0.57251465 27.37416016 0.1450293 26.74832031 -0.29541016 26.10351562 C-3.84427919 21.05315606 -7.55894284 17.56948862 -12.75 14.25 C-13.84405151 13.54460083 -13.84405151 13.54460083 -14.96020508 12.82495117 C-37.23842541 -0.68900068 -66.28087249 4.1092605 -83.88671875 23.02734375 Z " fill="#050505" transform="translate(144,41)"/>
<path d="M0 0 C0 0.99 0 1.98 0 3 C-0.99 3.66 -1.98 4.32 -3 5 C-2.67 5.66 -2.34 6.32 -2 7 C-3.98 7.99 -3.98 7.99 -6 9 C-6.33 8.01 -6.66 7.02 -7 6 C-7.66 5.67 -8.32 5.34 -9 5 C-7.87926138 4.16094435 -6.75325453 3.32892169 -5.625 2.5 C-4.99851563 2.0359375 -4.37203125 1.571875 -3.7265625 1.09375 C-2 0 -2 0 0 0 Z M-11 6 C-10.01 6.495 -10.01 6.495 -9 7 C-9.66 7.66 -10.32 8.32 -11 9 C-11 8.01 -11 7.02 -11 6 Z " fill="#ECECEC" transform="translate(147,159)"/>
<path d="M0 0 C0.33 0.66 0.66 1.32 1 2 C0.67 2.66 0.34 3.32 0 4 C-0.66 4 -1.32 4 -2 4 C-2.33 4.66 -2.66 5.32 -3 6 C-3 3 -3 3 -1.5 1.3125 C-0.7575 0.6628125 -0.7575 0.6628125 0 0 Z M-4 5 C-5.35608685 9.06826056 -7.51402637 11.17445909 -11.25 13.25 C-11.8275 13.4975 -12.405 13.745 -13 14 C-11.45665977 10.21180126 -8.44676575 5 -4 5 Z " fill="#1B1B1B" transform="translate(58,41)"/>
<path d="M0 0 C-1.31224548 3.93673644 -2.91910327 6.22719294 -6 9 C-6.66 7.35 -7.32 5.7 -8 4 C-2.25 0 -2.25 0 0 0 Z " fill="#EAEAEA" transform="translate(152,121)"/>
<path d="M0 0 C0.99 0 1.98 0 3 0 C3.625 1.875 3.625 1.875 4 4 C3.34 4.66 2.68 5.32 2 6 C1.34 6 0.68 6 0 6 C-1.34882408 6.63474075 -2.6846659 7.29848848 -4 8 C-2.87548273 5.0280615 -1.77706209 2.66559313 0 0 Z " fill="#EBEBEB" transform="translate(163,139)"/>
<path d="M0 0 C-5.5 4 -5.5 4 -10 4 C-9.67 3.01 -9.34 2.02 -9 1 C-3.79245283 -1.26415094 -3.79245283 -1.26415094 0 0 Z " fill="#E9E9E9" transform="translate(130,170)"/>
<path d="M0 0 C0.99 0.99 1.98 1.98 3 3 C1.6696875 3.433125 1.6696875 3.433125 0.3125 3.875 C-2.50382424 4.83148748 -5.25083156 5.86798946 -8 7 C-5.42215154 4.35247996 -3.08351902 2.05567935 0 0 Z " fill="#E4E4E4" transform="translate(69,57)"/>
<path d="M0 0 C0.66 0.66 1.32 1.32 2 2 C1.01 3.98 0.02 5.96 -1 8 C-1.99 7.01 -2.98 6.02 -4 5 C-3.34 4.01 -2.68 3.02 -2 2 C-1.34 2 -0.68 2 0 2 C0 1.34 0 0.68 0 0 Z " fill="#EAEAEA" transform="translate(38,59)"/>
<path d="M0 0 C0.99 0.33 1.98 0.66 3 1 C2.67 2.32 2.34 3.64 2 5 C0.68 4.67 -0.64 4.34 -2 4 C-2 3.34 -2 2.68 -2 2 C-1.34 2 -0.68 2 0 2 C0 1.34 0 0.68 0 0 Z " fill="#0E0E0E" transform="translate(145,64)"/>
</svg>
